<svg width="27" height="30" viewBox="0 0 27 30" fill="none" xmlns="http://www.w3.org/2000/svg"><g filter="url(#a)"><path d="m8.5 6.5 10.773 5.395c.35.213.281.766-.111.876l-2.72.766a3.67 3.67 0 0 0-2.136 1.647l-1.869 3.094a.448.448 0 0 1-.823-.125z" fill="#d17533"/><path d="m8.836 5.83-1.491-.747.43 1.61 3.114 11.654.001.003c.274 1.005 1.622 1.254 2.19.315l1.868-3.093a2.92 2.92 0 0 1 1.697-1.313l2.72-.766c1.049-.295 1.186-1.699.297-2.24l-.026-.015-.028-.014z" stroke="#fff" stroke-width="1.5"/></g><defs><filter id="a" x=".19" y=".666" width="26.808" height="28.338" filterUnits="userSpaceOnUse" color-interpolation-filters="sRGB"><feFlood flood-opacity="0" result="BackgroundImageFix"/><feColorMatrix in="SourceAlpha" values="0 0 0 0 0 0 0 0 0 0 0 0 0 0 0 0 0 0 127 0" result="hardAlpha"/><feOffset dy=".5"/><feGaussianBlur stdDeviation="1"/><feColorMatrix values="0 0 0 0 0.0705882 0 0 0 0 0.0588235 0 0 0 0 0.156863 0 0 0 0.06 0"/><feBlend in2="BackgroundImageFix" result="effect1_dropShadow_3226_7401"/><feColorMatrix in="SourceAlpha" values="0 0 0 0 0 0 0 0 0 0 0 0 0 0 0 0 0 0 127 0" result="hardAlpha"/><feOffset dy="3"/><feGaussianBlur stdDeviation="3"/><feColorMatrix values="0 0 0 0 0.0705882 0 0 0 0 0.0588235 0 0 0 0 0.156863 0 0 0 0.12 0"/><feBlend in2="effect1_dropShadow_3226_7401" result="effect2_dropShadow_3226_7401"/><feColorMatrix in="SourceAlpha" values="0 0 0 0 0 0 0 0 0 0 0 0 0 0 0 0 0 0 127 0" result="hardAlpha"/><feOffset/><feGaussianBlur stdDeviation=".5"/><feColorMatrix values="0 0 0 0 0.0705882 0 0 0 0 0.0588235 0 0 0 0 0.156863 0 0 0 0.24 0"/><feBlend in2="effect2_dropShadow_3226_7401" result="effect3_dropShadow_3226_7401"/><feBlend in="SourceGraphic" in2="effect3_dropShadow_3226_7401" result="shape"/></filter></defs></svg>